<?xml version="1.0" ?><svg id="Icons" viewBox="0 0 48 48" xmlns="http://www.w3.org/2000/svg"><defs><style>.cls-1{fill:#ffe500;}.cls-2{fill:#ebcb00;}.cls-3{fill:#fff48c;}.cls-10,.cls-4{fill:#45413c;}.cls-4{opacity:0.15;}.cls-5{fill:none;}.cls-10,.cls-5,.cls-7{stroke:#45413c;stroke-linecap:round;stroke-linejoin:round;}.cls-6{fill:#ffaa54;}.cls-7,.cls-8{fill:#fff;}.cls-9{fill:#f0f0f0;}</style></defs><title/><g data-name="&lt;Group&gt;" id="_Group_"><circle class="cls-1" cx="24" cy="21.5" data-name="&lt;Ellipse&gt;" id="_Ellipse_" r="20"/><path class="cls-2" d="M24,1.5a20,20,0,1,0,20,20A20,20,0,0,0,24,1.5Zm0,37A18.25,18.25,0,1,1,42.25,20.25,18.25,18.25,0,0,1,24,38.5Z" data-name="&lt;Compound Path&gt;" id="_Compound_Path_"/><ellipse class="cls-3" cx="24" cy="5.5" data-name="&lt;Ellipse&gt;" id="_Ellipse_2" rx="6" ry="1.5"/><ellipse class="cls-4" cx="24" cy="45.5" data-name="&lt;Ellipse&gt;" id="_Ellipse_3" rx="16" ry="1.5"/><circle class="cls-5" cx="24" cy="21.5" data-name="&lt;Ellipse&gt;" id="_Ellipse_4" r="20"/><path class="cls-6" d="M38.5,26.5c0,.83-1.12,1.5-2.5,1.5s-2.5-.67-2.5-1.5S34.62,25,36,25,38.5,25.67,38.5,26.5Z" data-name="&lt;Path&gt;" id="_Path_"/><path class="cls-6" d="M9.5,26.5c0,.83,1.12,1.5,2.5,1.5s2.5-.67,2.5-1.5S13.38,25,12,25,9.5,25.67,9.5,26.5Z" data-name="&lt;Path&gt;" id="_Path_2"/><path class="cls-7" d="M24,38.5a10.9,10.9,0,0,0,11-9.17,1,1,0,0,0-.31-.84,1.12,1.12,0,0,0-.91-.27,61.58,61.58,0,0,1-19.54,0,1.12,1.12,0,0,0-.91.27,1,1,0,0,0-.31.84A10.9,10.9,0,0,0,24,38.5Z" data-name="&lt;Path&gt;" id="_Path_3"/><path class="cls-7" d="M34,32.5A30.23,30.23,0,0,1,24,34a30.23,30.23,0,0,1-10-1.5" data-name="&lt;Path&gt;" id="_Path_4"/><line class="cls-5" data-name="&lt;Path&gt;" id="_Path_5" x1="24" x2="24" y1="29" y2="38.5"/><path class="cls-5" d="M17.5,28.66c0,.6-.05,5.75,1.06,8.49" data-name="&lt;Path&gt;" id="_Path_6"/><path class="cls-5" d="M30.5,28.66c0,.6.05,5.75-1.06,8.49" data-name="&lt;Path&gt;" id="_Path_7"/><circle class="cls-8" cx="36.5" cy="14.5" data-name="&lt;Path&gt;" id="_Path_8" r="8"/><circle class="cls-8" cx="12.5" cy="17.5" data-name="&lt;Path&gt;" id="_Path_9" r="5"/><path class="cls-9" d="M36.5,19.5A8,8,0,0,1,28.65,13a7.48,7.48,0,0,0-.15,1.5,8,8,0,0,0,16,0,7.48,7.48,0,0,0-.15-1.5A8,8,0,0,1,36.5,19.5Z" data-name="&lt;Path&gt;" id="_Path_10"/><path class="cls-9" d="M12.5,20.62a5,5,0,0,1-4.91-4.06,5.87,5.87,0,0,0-.09.94,5,5,0,0,0,10,0,5.87,5.87,0,0,0-.09-.94A5,5,0,0,1,12.5,20.62Z" data-name="&lt;Path&gt;" id="_Path_11"/><circle class="cls-5" cx="36.5" cy="14.5" data-name="&lt;Path&gt;" id="_Path_12" r="8"/><circle class="cls-5" cx="12.5" cy="17.5" data-name="&lt;Path&gt;" id="_Path_13" r="5"/><path class="cls-10" d="M13.5,17.5a1,1,0,1,1-1-1A1,1,0,0,1,13.5,17.5Z" data-name="&lt;Path&gt;" id="_Path_14"/><path class="cls-10" d="M35.5,14.5a1,1,0,1,0,1-1A1,1,0,0,0,35.5,14.5Z" data-name="&lt;Path&gt;" id="_Path_15"/></g></svg>